<svg width="16" height="16" viewBox="0 0 16 16" fill="none" xmlns="http://www.w3.org/2000/svg">
<path d="M9.69766 8.00078L14.8492 2.84922C15.318 2.38047 15.318 1.62109 14.8492 1.15234C14.3805 0.683594 13.6211 0.683594 13.1523 1.15234L8.00078 6.30391L2.84922 1.15234C2.38047 0.683594 1.62109 0.683594 1.15234 1.15234C0.683594 1.62109 0.683594 2.38047 1.15234 2.84922L6.30391 8.00078L1.15234 13.1523C0.683594 13.6211 0.683594 14.3805 1.15234 14.8492C1.38672 15.0836 1.69375 15.2008 2.00078 15.2008C2.30781 15.2008 2.61484 15.0836 2.84922 14.8492L8.00078 9.69766L13.1523 14.8492C13.3867 15.0836 13.6938 15.2008 14.0008 15.2008C14.3078 15.2008 14.6148 15.0836 14.8492 14.8492C15.318 14.3805 15.318 13.6211 14.8492 13.1523L9.69766 8.00078Z" fill="#EA1010"/>
</svg>
